# xmcd
# 
# Track frame offsets:
#     150
#     16332
#     29947
#     45005
#     61915
#     77717
#     91895
#     103847
#     116080
#     138857
#     153182
#     171955
# 
# Disc length: 2508
# 
# Revision: 5
# Processed by: cddbd v1.5.2PL0 Copyright (c) Steve Scherf et al.
# Submitted via: fre:ac v1.1beta1pre5
# 
DISCID=9109ca0c
DTITLE=Lorrie Morgan and Sammy Kershaw - I Finally Found Someone
DYEAR=2001
DGENRE=Country
TTITLE0=I Finally Found Someone
TTITLE1=Big Time
TTITLE2=I Can't Think Of Anything But You
TTITLE3=Be My Reason
TTITLE4=29 Again
TTITLE5=He Drinks Tequila
TTITLE6=What A Wonderful World
TTITLE7=Sad City
TTITLE8=That's Where I'll Be
TTITLE9=Sugar
TTITLE10=I Must Be Gettin' Older
TTITLE11=3 Seconds
EXTD=2001/RCA Records Label Nashville/Legacy Records/78636 70042-7\n
EXTT0=
EXTT1=
EXTT2=
EXTT3=
EXTT4=2001/RCA Records Label Nashville/Legacy Records/78636 70042-7
EXTT5=2001/RCA Records Label Nashville/Legacy Records/78636 70042-7
EXTT6=2001/RCA Records Label Nashville/Legacy Records/78636 70042-7
EXTT7=2001/RCA Records Label Nashville/Legacy Records/78636 70042-7
EXTT8=2001/RCA Records Label Nashville/Legacy Records/78636 70042-7
EXTT9=2001/RCA Records Label Nashville/Legacy Records/78636 70042-7
EXTT10=2001/RCA Records Label Nashville/Legacy Records/78636 70042-7
EXTT11=2001/RCA Records Label Nashville/Legacy Records/78636 70042-7
PLAYORDER=
